<svg viewBox="0 0 319 418" version="1.1" xmlns="http://www.w3.org/2000/svg" xmlns:xlink="http://www.w3.org/1999/xlink" xmlns:sketch="http://www.bohemiancoding.com/sketch/ns">
    <g id="Page-1" stroke="none" stroke-width="1" fill="none" fill-rule="evenodd" sketch:type="MSPage">
        <path d="M180.955,250.082 L214.435,250.082 L214.435,301.975 L180.955,301.975 L180.955,250.082 Z M180.949,179.844 L214.435,179.844 L214.435,231.716 L180.955,231.716 L180.949,179.844 Z M174.597,161.483 L168.667,161.483 L168.667,108.045 L174.597,108.045 L174.597,161.483 Z M174.597,231.716 L168.67,231.716 L168.668,179.844 L174.597,179.844 L174.597,231.716 Z M174.597,301.974 L168.669,301.974 L168.669,250.081 L174.597,250.081 L174.597,301.974 Z M174.597,347.941 L171.633,344.984 L168.67,347.941 L168.67,320.337 L174.597,320.337 L174.597,347.941 Z M163.685,386.656 L155.023,386.656 L144.224,356.823 L147.077,353.977 L153.216,360.113 L159.353,353.97 L165.492,360.113 L171.633,353.97 L174.49,356.823 L163.685,386.656 Z M144.105,320.337 L150.029,320.337 L150.029,347.938 L147.077,344.984 L144.105,347.949 L144.105,320.337 Z M144.105,108.044 L150.029,108.044 L150.029,161.482 L144.105,161.482 L144.105,108.044 Z M150.029,301.974 L144.105,301.974 L144.105,250.081 L150.029,250.081 L150.029,301.974 Z M144.105,179.844 L150.029,179.844 L150.029,231.716 L144.105,231.716 L144.105,179.844 Z M156.388,161.483 L156.388,108.044 L162.308,108.044 L162.313,161.483 L156.388,161.483 Z M162.313,179.844 L162.313,231.716 L156.386,231.716 L156.388,179.844 L162.313,179.844 Z M162.319,320.337 L162.319,347.941 L159.353,344.984 L156.386,347.949 L156.386,320.337 L162.319,320.337 Z M156.386,301.974 L156.386,250.082 L162.313,250.082 L162.319,301.974 L156.386,301.974 Z M98.053,101.689 L98.053,89.602 L220.648,89.595 L220.648,101.689 L98.053,101.689 Z M137.754,231.716 L104.266,231.716 L104.266,179.844 L137.754,179.844 L137.754,231.716 Z M137.754,301.974 L104.266,301.974 L104.266,250.081 L137.754,250.081 L137.754,301.974 Z M174.597,78.637 L174.597,83.238 L165.386,83.238 L174.597,78.637 Z M144.105,81.203 L174.597,65.956 L174.597,71.528 L151.166,83.238 L144.105,83.246 L144.105,81.203 Z M144.105,68.535 L174.597,53.291 L174.597,58.849 L144.105,74.104 L144.105,68.535 Z M144.105,55.858 L174.597,40.617 L174.597,46.195 L144.105,61.427 L144.105,55.858 Z M144.105,43.192 L167.39,31.548 L174.597,31.548 L174.597,33.506 L144.105,48.75 L144.105,43.192 Z M144.105,31.548 L153.183,31.548 L144.105,36.084 L144.105,31.548 Z M144.105,20.724 C144.105,16.915 145.67,13.332 148.515,10.627 C151.41,7.879 155.252,6.364 159.353,6.364 C163.598,6.364 167.541,7.963 170.451,10.877 C171.457,11.879 172.289,12.999 172.936,14.195 C174.027,16.196 174.597,18.423 174.597,20.724 L174.597,25.191 L144.105,25.191 L144.105,20.724 Z M214.435,339.632 L196.076,339.632 L196.076,357.994 L251.158,357.994 L251.158,339.632 L232.799,339.632 L232.799,320.337 L300.351,320.337 L318.708,301.974 L318.708,250.082 L300.351,231.716 L245.279,231.716 L245.279,250.082 L292.742,250.082 L300.351,257.707 L300.351,294.365 L292.742,301.974 L232.799,301.974 L232.799,179.844 L292.742,179.844 L300.351,187.439 L300.351,210.883 L318.708,210.883 L318.708,179.83 L300.353,161.483 L232.799,161.483 L232.799,142.187 L251.158,142.187 L251.158,123.82 L196.076,123.82 L196.076,142.187 L214.435,142.187 L214.435,161.483 L180.949,161.483 L180.949,108.044 L227.006,108.044 L227.002,83.238 L180.949,83.238 L180.955,20.724 C180.955,15.348 178.823,10.261 174.945,6.384 C170.84,2.269 165.297,0.008 159.353,0 C153.614,0 148.211,2.135 144.134,6.02 C142.592,7.486 141.308,9.139 140.302,10.931 C138.641,13.903 137.754,17.249 137.754,20.724 L137.754,22.887 L137.754,83.238 L91.699,83.246 L91.699,108.044 L137.75,108.044 L137.75,161.483 L104.265,161.483 L104.265,142.187 L122.634,142.187 L122.634,123.82 L67.546,123.82 L67.546,142.187 L85.902,142.187 L85.902,161.483 L18.36,161.483 L0,179.844 L0,231.716 L0.779,232.515 L15.166,246.903 L18.359,250.082 L73.427,250.082 L73.427,231.716 L25.962,231.716 L18.359,224.127 L18.359,187.439 L25.962,179.844 L85.902,179.844 L85.902,301.974 L25.962,301.974 L18.359,294.38 L18.359,270.935 L0,270.935 L0,301.974 L18.359,320.337 L85.902,320.337 L85.902,339.632 L67.546,339.632 L67.546,357.994 L122.634,357.994 L122.634,339.632 L104.265,339.632 L104.265,320.337 L137.759,320.337 L137.759,357.639 L159.353,417.289 L180.955,357.639 L180.955,320.337 L214.435,320.337 L214.435,339.632 Z" id="SecretHandshake_symbol" fill="#FFCC00" sketch:type="MSShapeGroup"></path>
    </g>
</svg>
